<?xml version="1.0" encoding="UTF-8"?>
<svg width="35px" height="35px" viewBox="0 0 35 35" version="1.1" xmlns="http://www.w3.org/2000/svg" xmlns:xlink="http://www.w3.org/1999/xlink">
    <!-- Generator: Sketch 50.1 (55044) - http://www.bohemiancoding.com/sketch -->
    <title>Page 1</title>
    <desc>Created with Sketch.</desc>
    <defs>
        <polygon id="path-1" points="0.0377760684 0.2751 17.246212 0.2751 17.246212 34.649895 0.0377760684 34.649895"></polygon>
        <polygon id="path-3" points="0.00028034188 0.2751 17.2087162 0.2751 17.2087162 34.649895 0.00028034188 34.649895"></polygon>
        <polygon id="path-5" points="0.0976290598 0.160755 18.8326667 0.160755 18.8326667 18.874555 0.0976290598 18.874555"></polygon>
    </defs>
    <g id="Page-1" stroke="none" stroke-width="1" fill="none" fill-rule="evenodd">
        <g id="Home-Page-V1-Copy" transform="translate(-150.000000, -18.000000)">
            <g id="Page-1" transform="translate(150.000000, 18.000000)">
                <g id="Group-3" transform="translate(17.170940, 0.074935)">
                    <mask id="mask-2" fill="white">
                        <use xlink:href="#path-1"></use>
                    </mask>
                    <g id="Clip-2"></g>
                    <path d="M0.0377760684,0.274995 C9.52629744,0.274995 17.246212,7.985145 17.246212,17.462445 C17.246212,26.940095 9.52629744,34.649895 0.0377760684,34.649895 L0.0377760684,29.737645 C6.81328889,29.737645 12.3251607,24.231795 12.3251607,17.464895 C12.3251607,10.697995 6.81328889,5.192845 0.0377760684,5.192845 L0.0377760684,0.274995 Z" id="Fill-1" fill="#D5B8E4" mask="url(#mask-2)"></path>
                </g>
                <g id="Group-6" transform="translate(0.000000, 0.074935)">
                    <mask id="mask-4" fill="white">
                        <use xlink:href="#path-3"></use>
                    </mask>
                    <g id="Clip-5"></g>
                    <path d="M17.2087162,0.274995 L17.2087162,5.192845 C10.4335538,5.192845 4.92133162,10.697995 4.92133162,17.464895 C4.92133162,24.231795 10.4335538,29.737645 17.2087162,29.737645 L17.2087162,34.649895 C7.71984444,34.649895 0.00028034188,26.940095 0.00028034188,17.462445 C0.00028034188,7.985145 7.71984444,0.274995 17.2087162,0.274995" id="Fill-4" fill="#974EBC" mask="url(#mask-4)"></path>
                </g>
            </g>
        </g>
    </g>
</svg>