<svg xmlns="http://www.w3.org/2000/svg" version="1.1" xmlns:xlink="http://www.w3.org/1999/xlink" width="512" height="512" x="0" y="0" viewBox="0 0 128 128" style="enable-background:new 0 0 512 512" xml:space="preserve" class=""><g><path d="M82.581 71.27a27.547 27.547 0 0 0 8.959-18.6 7.935 7.935 0 0 0-.082-15.526A27.642 27.642 0 0 0 64.084 12.4H64a27.645 27.645 0 0 0-27.458 24.745 7.935 7.935 0 0 0-.082 15.526 27.547 27.547 0 0 0 8.959 18.6A24.964 24.964 0 0 0 21.25 96.19v17.66a1.75 1.75 0 0 0 3.5 0v-7.42h15v7.424a1.75 1.75 0 0 0 3.5 0V95.5a1.75 1.75 0 0 0-3.5 0v7.43h-15v-6.74a21.464 21.464 0 0 1 21.44-21.44h3.984q.6.351 1.228.673a13.075 13.075 0 0 0 25.2 0q.622-.321 1.227-.672h3.981a21.464 21.464 0 0 1 21.44 21.44v6.74h-15V95.5a1.75 1.75 0 0 0-3.5 0v18.354a1.75 1.75 0 0 0 3.5 0v-7.424h15v7.42a1.75 1.75 0 0 0 3.5 0V96.19a24.964 24.964 0 0 0-24.169-24.92zm11.711-26.351a4.442 4.442 0 0 1-2.687 4.074v-8.148a4.442 4.442 0 0 1 2.687 4.074zm-60.584 0a4.442 4.442 0 0 1 2.692-4.074v8.148a4.442 4.442 0 0 1-2.692-4.074zm6.192 5.953V40a24.142 24.142 0 0 1 18.712-23.489c-2.058 2.373-3.893 5.717-3.154 9.694a9.418 9.418 0 0 0 6.782 7.479 10.29 10.29 0 0 0 2.814.4 8.421 8.421 0 0 0 6.266-2.575 6.545 6.545 0 0 0 .552-8.328 5.821 5.821 0 0 0-7.536-1.512 1.75 1.75 0 1 0 1.549 3.139 2.377 2.377 0 0 1 3.189.475 3.005 3.005 0 0 1-.339 3.866 5.539 5.539 0 0 1-5.535 1.168 5.925 5.925 0 0 1-4.3-4.753c-.886-4.762 4.139-8.635 5.609-9.655A24.129 24.129 0 0 1 88.105 40v10.87A24.132 24.132 0 0 1 74.5 72.568a1.8 1.8 0 0 0-.222.1 24.094 24.094 0 0 1-34.38-21.8zM64 81.5a9.618 9.618 0 0 1-7.9-4.181 27.519 27.519 0 0 0 15.808 0A9.616 9.616 0 0 1 64 81.5z" fill="#ffffff" opacity="1" data-original="#000000" class=""></path><path d="M51.084 48.581a4.13 4.13 0 1 0-4.129-4.129 4.133 4.133 0 0 0 4.129 4.129zM76.916 48.581a4.13 4.13 0 1 0-4.129-4.129 4.133 4.133 0 0 0 4.129 4.129zM52.834 54.028a1.75 1.75 0 1 0-3.5 0c0 4.918 6.442 8.77 14.666 8.77s14.666-3.852 14.666-8.77a1.75 1.75 0 1 0-3.5 0c0 2.493-4.586 5.27-11.166 5.27s-11.166-2.777-11.166-5.27z" fill="#ffffff" opacity="1" data-original="#000000" class=""></path></g></svg>